# xmcd CD database file
#
# Track frame offsets:
#	150
#	16650
#	39937
#	56438
#
# Disc length: 1061 seconds
#
# Revision: 0
# Processed by: cddbd v1.5.2PL0 Copyright (c) Steve Scherf et al.
# Submitted via: CDex 1.70beta3
#
DISCID=20042304
DTITLE=Lead - Still
DYEAR=2012
DGENRE=VISION FACTORY
TTITLE0=Still
TTITLE1=冬ガール
TTITLE2=Still (Instrumental)
TTITLE3=冬ガール (Instrumental)
EXTD=YEAR: 2012
EXTT0=
EXTT1=
EXTT2=
EXTT3=
PLAYORDER=
